<region> region_label=01_rr1 seq_position=1 key=36 sample=bar_m_01.$EXT tune=-14
<region> region_label=02_rr1 seq_position=1 key=37 sample=bar_m_02.$EXT tune=-11
<region> region_label=03_rr1 seq_position=1 key=38 sample=bar_m_03.$EXT tune=3
<region> region_label=04_rr1 seq_position=1 key=39 sample=bar_m_04.$EXT volume=-2.5 tune=-6
<region> region_label=05_rr1 seq_position=1 key=40 sample=bar_m_05.$EXT tune=-4
<region> region_label=06_rr1 seq_position=1 key=41 sample=bar_m_06.$EXT tune=1
<region> region_label=07_rr1 seq_position=1 key=42 sample=bar_m_07.$EXT volume=2.5 tune=4
<region> region_label=08_rr1 seq_position=1 key=43 sample=bar_m_08.$EXT volume=1 tune=2
<region> region_label=09_rr1 seq_position=1 key=44 sample=bar_m_09.$EXT tune=13
<region> region_label=10_rr1 seq_position=1 key=45 sample=bar_m_10.$EXT tune=11
<region> region_label=11_rr1 seq_position=1 key=46 sample=bar_m_11.$EXT volume=1 tune=9
<region> region_label=12_rr1 seq_position=1 key=47 sample=bar_m_12.$EXT volume=1 tune=9
<region> region_label=13_rr1 seq_position=1 key=48 sample=bar_m_13.$EXT volume=-1 tune=10
<region> region_label=14_rr1 seq_position=1 key=49 sample=bar_m_14.$EXT tune=2
<region> region_label=15_rr1 seq_position=1 key=50 sample=bar_m_15.$EXT tune=13
<region> region_label=16_rr1 seq_position=1 key=51 sample=bar_m_16.$EXT volume=-1 tune=14
<region> region_label=17_rr1 seq_position=1 key=52 sample=bar_m_17.$EXT tune=15
<region> region_label=18_rr1 seq_position=1 key=53 sample=bar_m_18.$EXT tune=-8
<region> region_label=19_rr1 seq_position=1 key=54 sample=bar_m_19.$EXT tune=-7
<region> region_label=20_rr1 seq_position=1 key=55 sample=bar_m_20.$EXT tune=-4
<region> region_label=21_rr1 seq_position=1 key=56 sample=bar_m_21.$EXT tune=-17
<region> region_label=22_rr1 seq_position=1 key=57 sample=bar_m_22.$EXT volume=-1
<region> region_label=23_rr1 seq_position=1 key=58 sample=bar_m_23.$EXT tune=-3
<region> region_label=24_rr1 seq_position=1 key=59 sample=bar_m_24.$EXT
<region> region_label=25_rr1 seq_position=1 key=60 sample=bar_m_25.$EXT volume=2 tune=2
<region> region_label=26_rr1 seq_position=1 key=61 sample=bar_m_26.$EXT volume=-1.5 tune=5
<region> region_label=27_rr1 seq_position=1 key=62 sample=bar_m_27.$EXT tune=-13
<region> region_label=28_rr1 seq_position=1 key=63 sample=bar_m_28.$EXT tune=-17
<region> region_label=29_rr1 seq_position=1 key=64 sample=bar_m_29.$EXT tune=-24
<region> region_label=30_rr1 seq_position=1 key=65 sample=bar_m_30.$EXT tune=-24
<region> region_label=31_rr1 seq_position=1 key=66 sample=bar_m_31.$EXT volume=-1 tune=-21
<region> region_label=32_rr1 seq_position=1 key=67 sample=bar_m_32.$EXT tune=-30
<region> region_label=33_rr1 seq_position=1 key=68 sample=bar_m_33.$EXT volume=-2.5 tune=-22
<region> region_label=34_rr1 seq_position=1 key=69 sample=bar_m_34.$EXT tune=-38